<?xml version="1.0" standalone="no"?>
<!DOCTYPE svg PUBLIC "-//W3C//DTD SVG 20010904//EN"
 "http://www.w3.org/TR/2001/REC-SVG-20010904/DTD/svg10.dtd">
<svg version="1.0" xmlns="http://www.w3.org/2000/svg"
 width="600.000000pt" height="921.000000pt" viewBox="0 0 600.000000 921.000000"
 preserveAspectRatio="xMidYMid meet">

<g transform="translate(0.000000,921.000000) scale(0.100000,-0.100000)"
fill="#000000" stroke="none">
<path d="M3320 9124 c-14 -2 -68 -11 -120 -20 -121 -19 -266 -56 -376 -95
-101 -37 -104 -42 -104 -162 0 -93 16 -178 60 -318 l30 -97 -34 -55 c-18 -31
-46 -93 -61 -139 -26 -75 -29 -98 -31 -232 l-2 -150 -69 -51 c-102 -78 -185
-170 -224 -250 -32 -66 -34 -75 -33 -170 0 -84 5 -112 28 -175 56 -150 139
-289 237 -395 l39 -42 -113 -5 c-130 -6 -148 -13 -370 -149 -123 -76 -131 -79
-161 -68 -28 10 -37 8 -81 -18 -44 -27 -50 -34 -48 -62 1 -31 -6 -36 -322
-245 -355 -235 -350 -230 -395 -366 -18 -53 -21 -82 -18 -156 3 -82 8 -100 42
-169 90 -181 294 -330 543 -396 l83 -22 0 -52 c0 -60 24 -306 41 -410 12 -82
53 -223 80 -279 10 -22 19 -45 19 -52 0 -11 -191 -449 -363 -834 -356 -797
-721 -1520 -883 -1752 -30 -43 -54 -88 -54 -100 0 -43 40 -162 84 -253 49
-101 135 -226 204 -297 25 -26 44 -49 41 -51 -2 -2 -33 -9 -69 -15 -185 -33
-321 -163 -391 -372 -44 -132 -51 -255 -17 -320 33 -64 58 -73 218 -78 197 -6
421 12 570 47 148 35 396 111 476 146 l57 25 95 -20 c52 -11 155 -26 228 -32
218 -18 395 0 877 92 l58 11 43 -39 c77 -71 256 -158 515 -251 189 -68 322
-100 451 -107 128 -8 275 8 309 34 64 47 84 118 61 213 -23 96 -101 273 -156
356 -59 88 -162 190 -224 221 l-39 19 84 72 c74 63 245 242 245 256 0 3 -17
34 -39 68 -191 307 -521 937 -686 1312 -290 659 -433 1207 -395 1517 41 346
153 771 247 938 26 46 29 48 80 52 69 6 100 33 109 97 5 34 23 69 72 136 126
175 162 285 161 495 0 116 -5 161 -24 233 l-7 27 99 0 c163 0 313 49 361 118
26 36 34 75 23 105 l-10 25 -73 -19 c-85 -22 -213 -28 -247 -10 -22 12 -22 13
21 41 51 33 97 68 172 133 40 36 71 53 113 64 127 33 230 112 269 207 14 34
34 53 97 97 230 157 449 364 571 538 88 125 90 131 76 224 -12 85 -39 182 -72
260 -20 47 -20 48 -2 68 29 32 113 71 139 65 16 -4 42 -46 106 -171 77 -151
109 -194 109 -147 0 10 -9 70 -21 133 -42 238 -119 399 -189 399 -27 0 -55
-28 -164 -161 l-39 -49 -75 112 c-97 146 -184 249 -319 378 -157 151 -265 224
-508 345 -313 156 -465 195 -785 200 -113 2 -216 1 -230 -1z m65 -633 c42 -39
95 -74 161 -107 55 -27 101 -50 102 -51 2 -1 -10 -22 -27 -46 -16 -24 -42 -70
-56 -102 -24 -55 -24 -59 -9 -77 21 -22 57 -23 75 -1 8 9 22 57 31 106 10 50
21 94 25 98 5 5 27 2 50 -6 22 -8 88 -24 145 -35 56 -12 132 -30 168 -41 87
-27 204 -35 253 -17 49 16 49 32 0 36 -73 5 -97 60 -69 157 19 62 37 75 107
75 151 0 263 -198 299 -529 14 -125 8 -276 -14 -356 -44 -161 -156 -310 -370
-493 -21 -18 -35 -36 -32 -39 3 -3 32 2 63 13 39 12 88 18 148 18 150 0 201
-41 193 -154 -9 -121 -90 -223 -215 -270 -64 -24 -148 -36 -186 -26 -31 7 -60
65 -55 111 4 48 -14 39 -33 -17 -43 -129 -158 -198 -378 -230 -125 -18 -447
12 -664 63 -71 17 -99 29 -150 67 -151 114 -280 261 -337 385 -16 34 -41 109
-56 167 -51 195 -33 332 57 434 52 59 66 66 140 71 77 5 143 -15 202 -60 50
-38 57 -41 57 -22 0 7 -12 20 -27 29 l-28 17 31 1 c94 1 182 57 223 145 27 57
51 154 51 204 0 105 -97 221 -184 221 -25 0 -25 0 -11 41 22 60 65 137 82 143
15 6 139 -10 154 -20 4 -2 11 1 15 7 11 19 -23 37 -82 45 -31 3 -51 10 -48 16
6 10 123 88 132 88 2 0 33 -26 67 -59z m-233 -317 c50 -35 58 -51 23 -51 -57
0 -102 -79 -90 -155 10 -57 64 -113 100 -104 31 8 31 7 0 -53 -44 -88 -139
-140 -227 -125 -73 13 -158 46 -169 66 -23 43 8 244 50 326 62 122 211 168
313 96z m78 -113 c25 -47 3 -121 -35 -121 -20 0 -45 40 -45 70 0 57 57 93 80
51z m-457 -1426 c4 -27 19 -101 32 -164 29 -134 30 -137 10 -121 -13 11 -27
11 -127 -2 -9 -1 -15 -5 -13 -8 2 -4 -5 -19 -16 -36 -11 -16 -19 -46 -19 -70
0 -52 29 -80 132 -129 70 -33 79 -35 116 -25 50 13 88 56 97 109 9 57 1 74
-51 103 l-47 26 51 16 c29 10 57 14 64 10 7 -4 10 -3 5 1 -4 5 55 31 130 58
266 94 240 89 406 79 127 -8 150 -12 162 -28 41 -54 166 -287 182 -339 14 -47
18 -93 18 -210 -1 -216 -24 -288 -148 -467 -34 -49 -64 -88 -67 -88 -3 0 -12
15 -18 34 -29 79 -178 271 -254 326 -32 24 -53 29 -124 35 l-84 7 19 31 c34
54 192 217 203 211 6 -4 8 -3 5 3 -3 5 14 29 38 53 25 24 45 48 45 52 0 13
-20 9 -37 -7 -20 -21 -30 -11 -12 12 13 16 12 17 -4 4 -10 -8 -16 -20 -13 -26
4 -12 -75 -97 -90 -97 -5 0 -8 -3 -7 -8 1 -4 -12 -20 -29 -36 -17 -16 -28 -24
-24 -17 3 6 2 14 -3 18 -6 3 -8 -4 -6 -16 3 -15 -10 -39 -44 -78 -26 -31 -53
-65 -59 -77 -10 -19 -23 -22 -139 -28 -124 -7 -249 -27 -281 -45 -12 -7 -32 6
-84 56 -37 36 -65 70 -61 76 4 6 1 7 -6 2 -15 -9 -83 53 -74 68 3 6 1 7 -5 3
-6 -3 -44 22 -84 58 -40 35 -101 79 -136 99 l-63 34 70 76 c38 41 73 72 77 69
4 -4 4 -2 0 5 -9 15 -34 6 -65 -24 -13 -12 -28 -20 -34 -16 -5 3 -7 1 -4 -4 4
-6 -3 -23 -15 -38 -20 -26 -22 -26 -29 -9 -4 10 -8 30 -8 44 -2 40 -46 125
-90 173 l-41 44 32 25 c59 44 290 179 332 195 60 22 206 51 246 50 33 -2 35
-4 43 -52z m177 -43 c90 -34 278 -82 320 -82 70 -1 41 -19 -103 -68 -84 -29
-186 -65 -227 -81 l-75 -29 -31 147 c-17 80 -34 156 -38 169 l-8 23 39 -24
c21 -13 76 -38 123 -55z m-935 -58 c12 -5 2 -16 -42 -45 -67 -45 -73 -46 -73
-19 0 12 15 30 38 44 40 27 51 30 77 20z m119 -169 c45 -42 84 -127 94 -204
l8 -58 -45 15 c-58 19 -243 20 -286 2 -16 -7 -70 -16 -119 -20 -58 -6 -94 -13
-104 -24 -21 -21 -6 -34 20 -17 12 7 47 16 80 18 58 6 58 6 97 -37 79 -87 107
-178 121 -395 5 -82 17 -179 25 -214 9 -35 13 -66 10 -69 -11 -11 -210 17
-280 39 -164 50 -312 152 -339 232 -42 126 85 317 351 526 169 133 311 238
324 240 3 1 23 -15 43 -34z m705 -49 c105 -50 121 -64 121 -105 0 -48 -35
-102 -73 -112 -17 -5 -44 -2 -71 7 -71 24 -151 148 -126 195 24 45 77 50 149
15z m-683 -217 c70 -13 143 -50 239 -122 68 -51 69 -52 40 -55 -58 -6 -140
-34 -211 -71 l-70 -38 -43 83 c-47 93 -120 181 -157 190 -86 22 92 33 202 13z
m350 -211 c90 -67 234 -215 312 -318 273 -365 255 -337 254 -412 -1 -56 -4
-63 -34 -90 -60 -52 -167 -119 -226 -139 -36 -13 -86 -20 -137 -21 -94 -1
-154 20 -252 89 -75 52 -125 110 -175 201 -39 69 -47 99 -25 86 7 -4 9 -3 4 2
-5 5 -11 8 -14 6 -12 -7 -43 82 -62 176 -11 53 -23 141 -25 195 -4 86 -3 98
13 107 10 5 22 6 26 2 5 -4 5 -2 1 5 -12 21 111 85 209 109 49 12 93 23 96 23
3 1 19 -9 35 -21z m908 -205 c103 -73 256 -309 256 -395 0 -53 -27 -78 -85
-78 -59 0 -82 24 -138 142 -23 48 -48 87 -56 88 -9 0 -11 -6 -6 -17 17 -44 36
-206 33 -286 -3 -83 -5 -90 -31 -113 -18 -15 -41 -24 -63 -24 -34 0 -34 0 -28
38 8 53 -10 138 -46 218 -22 48 -33 65 -41 57 -8 -8 -6 -18 5 -35 31 -47 56
-140 56 -206 0 -63 -1 -66 -40 -104 -28 -25 -50 -38 -69 -38 l-28 0 -7 176 -7
177 -67 77 c-37 42 -83 97 -102 121 -19 24 -64 77 -99 118 -46 53 -60 75 -51
81 45 28 304 49 477 40 83 -5 96 -8 137 -37z m70 -441 l37 -53 -20 -28 c-77
-108 -193 -493 -237 -789 l-18 -114 -75 -38 c-182 -91 -382 -143 -556 -143
-112 0 -127 2 -220 36 -149 52 -168 62 -208 106 -82 91 -112 198 -104 376 5
98 11 138 37 215 17 52 39 110 48 128 l18 33 39 -58 c56 -84 133 -162 189
-190 84 -42 200 -41 338 3 66 21 161 85 240 162 l68 65 23 -21 c46 -43 105
-37 160 16 22 21 38 27 72 27 84 1 135 66 134 170 0 33 -4 84 -8 113 -4 29 -5
49 -1 45 4 -5 23 -32 44 -61z"/>
<path d="M3947 8124 c-12 -12 6 -34 24 -29 32 11 182 -16 241 -42 63 -28 131
-93 154 -149 14 -33 44 -48 44 -21 0 24 -59 114 -96 147 -47 41 -123 75 -199
89 -64 12 -158 15 -168 5z"/>
<path d="M3903 7824 c-52 -19 -128 -85 -152 -133 -27 -52 -41 -130 -41 -221
l0 -80 -30 0 c-19 0 -30 -5 -30 -14 0 -10 15 -12 68 -8 80 5 199 -21 288 -65
l57 -28 73 78 c178 189 180 346 5 458 -40 26 -54 29 -120 28 -42 0 -95 -7
-118 -15z m212 -24 c23 -11 52 -31 65 -45 l23 -25 -27 0 c-41 0 -62 -15 -80
-60 -21 -52 -20 -85 3 -137 22 -47 52 -67 87 -59 23 6 24 5 14 -14 -6 -12 -40
-51 -74 -88 l-63 -66 -69 31 c-80 37 -140 52 -206 53 -43 0 -48 3 -54 26 -10
39 2 173 21 225 19 54 74 123 116 144 73 38 183 45 244 15z m123 -170 c5 -68
-40 -104 -72 -58 -23 32 -20 84 5 109 18 18 23 19 42 6 16 -10 23 -26 25 -57z"/>
<path d="M3193 7519 c-57 -17 -85 -90 -59 -153 22 -52 105 -90 182 -84 32 3
62 12 71 21 24 24 10 31 -26 13 -54 -29 -136 -13 -188 36 -33 31 -31 90 3 125
23 23 31 25 75 20 27 -4 72 -18 99 -33 51 -28 82 -25 45 3 -57 44 -149 67
-202 52z"/>
<path d="M2816 7345 c-21 -7 -43 -18 -49 -24 -19 -19 2 -24 35 -8 30 15 34 15
43 1 122 -194 344 -284 701 -284 l154 0 0 -24 c0 -14 4 -27 9 -31 17 -10 23
15 11 50 -12 37 -51 65 -90 65 -31 0 -24 -17 13 -26 24 -6 0 -9 -93 -12 -198
-5 -397 38 -524 112 -45 26 -156 138 -156 157 0 8 12 10 40 5 46 -7 55 9 14
24 -34 13 -61 12 -108 -5z"/>
<path d="M2960 7007 c0 -21 55 -92 94 -122 48 -37 116 -55 203 -55 97 0 86 16
-14 22 -121 7 -222 63 -254 139 -12 30 -29 39 -29 16z"/>
<path d="M4356 6915 c-44 -15 -91 -58 -101 -92 -10 -35 11 -27 34 12 25 43 76
67 144 68 32 1 47 5 47 14 0 17 -73 16 -124 -2z"/>
<path d="M2347 6543 c-3 -5 6 -9 20 -10 19 -1 22 1 12 8 -17 11 -26 11 -32 2z"/>
<path d="M2772 6510 c0 -14 2 -19 5 -12 2 6 2 18 0 25 -3 6 -5 1 -5 -13z"/>
<path d="M2795 6391 c-3 -5 -2 -12 3 -15 5 -3 9 1 9 9 0 17 -3 19 -12 6z"/>
<path d="M2700 6370 c-8 -5 -10 -10 -5 -10 6 0 17 5 25 10 8 5 11 10 5 10 -5
0 -17 -5 -25 -10z"/>
<path d="M2645 6331 c-3 -5 -2 -12 3 -15 5 -3 9 1 9 9 0 17 -3 19 -12 6z"/>
<path d="M2305 6241 c-3 -5 -2 -12 3 -15 5 -3 9 1 9 9 0 17 -3 19 -12 6z"/>
<path d="M2630 6176 c0 -2 8 -10 18 -17 15 -13 16 -12 3 4 -13 16 -21 21 -21
13z"/>
<path d="M2830 6056 c0 -2 7 -7 16 -10 8 -3 12 -2 9 4 -6 10 -25 14 -25 6z"/>
<path d="M3505 6050 c3 -5 8 -10 11 -10 2 0 4 5 4 10 0 6 -5 10 -11 10 -5 0
-7 -4 -4 -10z"/>
<path d="M2395 6040 c3 -5 8 -10 11 -10 2 0 4 5 4 10 0 6 -5 10 -11 10 -5 0
-7 -4 -4 -10z"/>
<path d="M2491 5986 c-1 -16 -3 -17 -18 -5 -17 12 -17 12 -1 -6 20 -21 32 -16
25 12 -4 17 -5 17 -6 -1z"/>
<path d="M2500 5946 c0 -2 7 -7 16 -10 8 -3 12 -2 9 4 -6 10 -25 14 -25 6z"/>
<path d="M2742 5754 c10 -10 20 -16 22 -13 3 3 -5 11 -17 18 -21 13 -21 12 -5
-5z"/>
<path d="M2760 5766 c0 -2 7 -7 16 -10 8 -3 12 -2 9 4 -6 10 -25 14 -25 6z"/>
<path d="M2940 5760 c-9 -6 -10 -10 -3 -10 6 0 15 5 18 10 8 12 4 12 -15 0z"/>
<path d="M2765 5720 c-3 -6 1 -7 9 -4 18 7 21 14 7 14 -6 0 -13 -4 -16 -10z"/>
<path d="M3222 6484 c-14 -16 -5 -18 17 -5 7 5 9 11 5 14 -5 3 -15 -1 -22 -9z"/>
<path d="M3053 6433 c9 -2 23 -2 30 0 6 3 -1 5 -18 5 -16 0 -22 -2 -12 -5z"/>
<path d="M2162 6268 c5 -15 28 -23 28 -10 0 5 -7 13 -16 16 -10 4 -14 1 -12
-6z"/>
<path d="M2180 6190 c0 -5 5 -10 11 -10 5 0 7 5 4 10 -3 6 -8 10 -11 10 -2 0
-4 -4 -4 -10z"/>
<path d="M1930 6149 c0 -5 5 -7 10 -4 6 3 10 8 10 11 0 2 -4 4 -10 4 -5 0 -10
-5 -10 -11z"/>
<path d="M1805 6130 c-3 -5 -2 -10 4 -10 5 0 13 5 16 10 3 6 2 10 -4 10 -5 0
-13 -4 -16 -10z"/>
<path d="M2188 6133 c7 -3 16 -2 19 1 4 3 -2 6 -13 5 -11 0 -14 -3 -6 -6z"/>
<path d="M1656 6023 c-6 -14 -5 -15 5 -6 7 7 10 15 7 18 -3 3 -9 -2 -12 -12z"/>
<path d="M1847 6026 c-4 -10 -1 -13 7 -10 8 3 21 -5 30 -18 9 -12 16 -18 16
-12 0 6 -11 21 -24 33 -19 18 -24 20 -29 7z"/>
<path d="M1740 6020 c-9 -6 -10 -10 -3 -10 6 0 15 5 18 10 8 12 4 12 -15 0z"/>
<path d="M2227 5805 c-4 -8 -1 -17 6 -21 7 -4 9 -4 5 1 -4 4 -3 14 3 22 7 8 8
13 1 13 -5 0 -12 -7 -15 -15z"/>
<path d="M3178 5590 c-15 -11 -30 -38 -37 -65 -12 -48 -46 -75 -96 -75 -16 0
-25 -5 -25 -16 0 -14 7 -15 37 -11 54 9 85 37 108 97 21 56 38 68 93 69 49 1
38 21 -12 21 -28 0 -52 -7 -68 -20z"/>
<path d="M2180 4916 c0 -2 7 -7 16 -10 8 -3 12 -2 9 4 -6 10 -25 14 -25 6z"/>
<path d="M2163 4885 c-3 -9 -3 -18 -1 -21 3 -3 8 4 11 16 6 23 -1 27 -10 5z"/>
<path d="M2272 4810 c7 -11 17 -20 22 -20 5 0 1 9 -9 20 -10 11 -20 20 -22 20
-2 0 2 -9 9 -20z"/>
<path d="M2899 4783 c-13 -16 -12 -17 4 -4 9 7 17 15 17 17 0 8 -8 3 -21 -13z"/>
<path d="M2863 4755 c0 -8 4 -12 9 -9 5 3 6 10 3 15 -9 13 -12 11 -12 -6z"/>
<path d="M2326 4752 c-3 -5 1 -9 9 -9 8 0 12 4 9 9 -3 4 -7 8 -9 8 -2 0 -6 -4
-9 -8z"/>
<path d="M2648 4683 c6 -2 18 -2 25 0 6 3 1 5 -13 5 -14 0 -19 -2 -12 -5z"/>
</g>
</svg>
