<?xml version="1.0" encoding="iso-8859-1"?>
<!-- Generator: Adobe Illustrator 19.0.0, SVG Export Plug-In . SVG Version: 6.00 Build 0)  -->
<svg version="1.1" id="Layer_1" xmlns="http://www.w3.org/2000/svg" xmlns:xlink="http://www.w3.org/1999/xlink" x="0px" y="0px"
	 width="100px" height="100px" viewBox="0 0 512.002 512.002" style="enable-background:new 0 0 512.002 512.002;" xml:space="preserve">
<path style="fill:#77BC1F;" d="M434.666,196.485H108.461c-16.984,0-30.757,13.77-30.757,30.758c0,4.951,1.179,9.625,3.257,13.769
	c8.673,18.378,45.021,61.413,64.577,77.121c0.436,0.359,0.89,0.699,1.334,1.047c0.083,0.066,0.171,0.139,0.258,0.201l0,0
	c11.628,9.038,26.226,14.436,42.094,14.436h245.442c37.923,0,68.665-30.744,68.665-68.664
	C503.332,227.228,472.589,196.485,434.666,196.485z"/>
<path id="SVGCleanerId_0" style="fill:#218649;" d="M21.251,196.154c2.167,34.139,30.524,61.161,65.212,61.161h246.009
	c33.587,0,60.814-27.229,60.814-60.816L21.251,196.154z"/>
<path style="fill:#77BC1F;" d="M434.666,196.485H108.461c-16.984,0-30.757,13.77-30.757,30.758c0,4.951,1.179,9.625,3.257,13.769
	c8.673,18.378,45.021,61.413,64.577,77.121c0.436,0.359,0.89,0.699,1.334,1.047c0.083,0.066,0.171,0.139,0.258,0.201l0,0
	c11.628,9.038,26.226,14.436,42.094,14.436h245.442c37.923,0,68.665-30.744,68.665-68.664
	C503.332,227.228,472.589,196.485,434.666,196.485z"/>
<path style="opacity:0.3;fill:#222222;enable-background:new    ;" d="M108.461,196.485c-16.984,0-30.757,13.77-30.757,30.758
	c0,4.951,1.179,9.625,3.257,13.769c8.673,18.378,45.021,61.413,64.577,77.121c0.436,0.359,0.89,0.699,1.334,1.047
	c0.083,0.066,0.171,0.139,0.258,0.201l0,0c11.628,9.038,26.226,14.436,42.094,14.436H294.96V196.485H108.461z"/>
<g>
	<path id="SVGCleanerId_0_1_" style="fill:#218649;" d="M21.251,196.154c2.167,34.139,30.524,61.161,65.212,61.161h246.009
		c33.587,0,60.814-27.229,60.814-60.816L21.251,196.154z"/>
</g>
<g>
	<path style="opacity:0.2;fill:#222222;enable-background:new    ;" d="M21.251,196.154c2.167,34.139,30.524,61.161,65.212,61.161
		h208.498v-60.989L21.251,196.154z"/>
	<path style="opacity:0.3;fill:#222222;enable-background:new    ;" d="M219.687,269.456l-73.182-73.184l-84.531-0.077
		c-0.018,4.009,0.116,7.621,0.424,10.482c0.803,8.422,4.429,16.627,10.881,23.078l93.055,93.057
		c6.914,6.914,15.842,10.582,24.892,11.008h3.576c9.048-0.428,17.974-4.096,24.883-11.005
		C234.419,308.077,234.424,284.19,219.687,269.456z"/>
</g>
<path style="fill:#95D600;" d="M64.945,378.873c-0.743,0-1.494-0.05-2.25-0.15c-9.183-1.231-15.63-9.673-14.398-18.857
	l25.328-188.999c1.231-9.183,9.66-15.623,18.857-14.401c9.185,1.23,15.632,9.674,14.4,18.855l-25.33,189.001
	C80.422,372.75,73.219,378.873,64.945,378.873z"/>
<path style="opacity:0.3;fill:#222222;enable-background:new    ;" d="M92.481,156.466c-9.197-1.222-17.626,5.218-18.857,14.401
	l-6.743,50.326c1.679,3.067,3.797,5.959,6.397,8.559l23.197,23.199l10.404-77.63C108.114,166.14,101.667,157.696,92.481,156.466z"/>
<path style="fill:#218649;" d="M226.634,262.508l-124.43-124.431c-6.601-6.601-17.301-6.601-23.902-0.003
	c-1.916,1.917-3.259,4.185-4.061,6.593l-0.016,0.005c-3.775,10.484-6.373,41.341-4.881,55.056
	c0.803,8.423,4.429,16.629,10.881,23.08l93.057,93.057c14.732,14.733,38.619,14.733,53.349,0.002
	C241.368,301.131,241.37,277.242,226.634,262.508z"/>
<path style="fill:#95D600;" d="M64.925,378.872H25.446c-9.265,0-16.777-7.513-16.777-16.777c0-9.266,7.513-16.777,16.777-16.777
	h39.479c9.265,0,16.777,7.511,16.777,16.777C81.701,371.359,74.189,378.872,64.925,378.872z"/>
<rect x="28.321" y="345.315" style="fill:#218649;" width="17.337" height="33.553"/>
<path style="opacity:0.3;fill:#222222;enable-background:new    ;" d="M292.911,332.683c-6.393,0-12.498-3.671-15.3-9.874
	l-26.565-58.811c-3.811-8.445-0.059-18.38,8.386-22.195c8.443-3.814,18.379-0.062,22.195,8.383l26.565,58.812
	c3.813,8.444,0.059,18.379-8.384,22.195C297.566,332.204,295.218,332.683,292.911,332.683z"/>
<path style="fill:#95D600;" d="M298.546,327.051c-6.393,0-12.498-3.672-15.3-9.875l-26.563-58.81
	c-3.813-8.447-0.061-18.382,8.384-22.196c8.443-3.814,18.379-0.062,22.195,8.383l26.565,58.811
	c3.813,8.445,0.059,18.38-8.384,22.196C303.2,326.571,300.855,327.051,298.546,327.051z"/>
<path style="opacity:0.3;fill:#222222;enable-background:new    ;" d="M308.191,308.999l-26.565-58.812
	c-3.815-8.445-13.752-12.197-22.195-8.383c-0.632,0.283-1.226,0.613-1.804,0.963c-2.761,4.567-3.307,10.369-0.945,15.6l26.563,58.81
	c2.804,6.203,8.908,9.875,15.3,9.875c2.309,0,4.654-0.48,6.897-1.491c0.63-0.285,1.226-0.615,1.804-0.964
	C310.006,320.028,310.552,314.229,308.191,308.999z"/>
<g>
	<path style="fill:#95D600;" d="M249.821,378.874c-1.092,0-2.201-0.107-3.314-0.328c-9.083-1.822-14.973-10.662-13.154-19.748
		l22.168-110.634c1.819-9.084,10.668-14.965,19.745-13.155c9.083,1.822,14.976,10.662,13.154,19.745l-22.166,110.637
		C264.657,373.361,257.653,378.874,249.821,378.874z"/>
	<path style="fill:#95D600;" d="M249.806,378.872h-39.479c-9.265,0-16.777-7.513-16.777-16.777c0-9.266,7.513-16.777,16.777-16.777
		h39.479c9.265,0,16.777,7.511,16.777,16.777C266.582,371.359,259.07,378.872,249.806,378.872z"/>
</g>
<rect x="213.208" y="345.315" style="fill:#218649;" width="17.337" height="33.553"/>
<path style="opacity:0.3;fill:#222222;enable-background:new    ;" d="M384.08,332.683c-6.39,0-12.498-3.671-15.3-9.874
	l-26.562-58.811c-3.815-8.445-0.061-18.38,8.384-22.195c8.441-3.814,18.379-0.062,22.195,8.383l26.565,58.812
	c3.813,8.444,0.059,18.379-8.384,22.195C388.735,332.204,386.388,332.683,384.08,332.683z"/>
<path style="fill:#95D600;" d="M389.714,327.051c-6.39,0-12.498-3.672-15.3-9.875l-26.562-58.81
	c-3.815-8.447-0.061-18.382,8.384-22.196c8.443-3.814,18.379-0.062,22.195,8.383l26.565,58.811
	c3.813,8.445,0.059,18.38-8.384,22.196C394.37,326.571,392.022,327.051,389.714,327.051z"/>
<path style="opacity:0.3;fill:#222222;enable-background:new    ;" d="M399.36,308.999l-26.565-58.812
	c-3.815-8.445-13.754-12.197-22.195-8.383c-0.63,0.283-1.225,0.613-1.803,0.963c-2.761,4.567-3.309,10.369-0.945,15.6l26.562,58.81
	c2.804,6.203,8.91,9.875,15.3,9.875c2.307,0,4.654-0.48,6.897-1.491c0.63-0.285,1.226-0.615,1.802-0.964
	C401.176,320.028,401.722,314.229,399.36,308.999z"/>
<g>
	<path style="fill:#95D600;" d="M340.993,378.874c-1.095,0-2.203-0.107-3.316-0.328c-9.083-1.822-14.973-10.662-13.154-19.748
		l22.168-110.634c1.819-9.084,10.668-14.965,19.745-13.155c9.086,1.822,14.976,10.662,13.156,19.745l-22.168,110.637
		C355.827,373.361,348.822,378.874,340.993,378.874z"/>
	<path style="fill:#95D600;" d="M340.973,378.872h-39.477c-9.267,0-16.78-7.513-16.78-16.777c0-9.266,7.513-16.777,16.78-16.777
		h39.477c9.267,0,16.777,7.511,16.777,16.777C357.75,371.359,350.239,378.872,340.973,378.872z"/>
</g>
<rect x="304.377" y="345.315" style="fill:#218649;" width="17.337" height="33.553"/>
<path style="fill:#1E252B;" d="M466.801,226.865c-3.86,0-6.989,3.131-6.989,6.991c0,3.861,3.129,6.99,6.989,6.99
	c3.86,0,6.991-3.129,6.991-6.99C473.792,229.996,470.661,226.865,466.801,226.865z M441.125,188.107
	c8.198-21.033,28.657-35.984,52.555-35.984c4.788,0,8.668-3.88,8.668-8.668c0-4.788-3.88-8.668-8.668-8.668
	c-33.468,0-61.78,22.423-70.75,53.031h-44.267l-214.659-0.199l-55.671-55.671c-4.831-4.83-11.252-7.488-18.082-7.488
	c-6.828,0-13.249,2.658-18.081,7.488c-2.681,2.684-4.688,5.855-5.966,9.437c-0.047,0.117-0.092,0.233-0.135,0.353
	c-3.383,9.397-5.581,30.144-5.795,45.787l-39.016-0.036h-0.008c-2.392,0-4.68,0.988-6.318,2.733
	c-1.641,1.746-2.485,4.093-2.335,6.483c1.665,26.251,17.356,49.657,40.591,61.38L42.66,336.65H25.446
	C11.415,336.648,0,348.063,0,362.094c0,14.031,11.415,25.446,25.446,25.446h39.366c0.046,0.001,0.098-0.006,0.139,0.001
	c12.651,0,23.48-9.479,25.193-22.067l10.875-81.136c13.728,16.507,28.883,32.353,39.01,40.486c0.363,0.299,0.736,0.589,1.11,0.877
	l0.401,0.312c0.113,0.09,0.227,0.179,0.341,0.265c13.672,10.604,30.04,16.208,47.346,16.208h4.904
	c-5.645,4.671-9.247,11.727-9.247,19.609c0,14.031,11.415,25.446,25.446,25.446h39.305c0.065,0.001,0.128,0.002,0.191,0.002
	c12.071,0,22.557-8.599,24.933-20.448l1.366-6.815c-0.043,0.601-0.073,1.204-0.073,1.816c0,14.031,11.416,25.446,25.448,25.446
	h39.305c0.065,0.001,0.128,0.002,0.191,0.002c12.07,0,22.555-8.599,24.93-20.448l4.931-24.608h63.815
	c42.643,0,77.334-34.692,77.334-77.333C512,224.686,480.754,191.403,441.125,188.107z M379.023,205.153l4.885,0.005
	c-1.405,8.464-4.875,16.389-10.148,23.193c-1.797-0.825-3.68-1.453-5.622-1.843c-0.03-0.006-0.061-0.012-0.09-0.017
	c-13.727-2.687-27.107,6.251-29.857,19.969l-0.384,1.916c-1.767,0.179-3.549,0.269-5.334,0.269h-33.853l-3.46-7.662
	c-2.365-5.237-6.479-9.56-11.594-12.177c-2.086-1.066-4.306-1.839-6.596-2.299c-0.03-0.006-0.06-0.012-0.089-0.017
	c-13.737-2.691-27.111,6.249-29.859,19.969l-0.438,2.187h-21.553l-43.492-43.493h197.484V205.153z M321.725,299.795l-15.273-33.811
	h26.019c0.604,0,1.21-0.03,1.815-0.045l-11.863,59.211h-3.264C324.298,318,325.6,308.379,321.725,299.795z M243.111,265.984
	l-0.833,4.157c-0.64-1.419-1.35-2.806-2.134-4.157H243.111z M231.68,323.024l-0.425,2.124h-1.98
	C230.099,324.473,230.896,323.759,231.68,323.024z M31.265,204.832l29.059,0.027l-4.647,34.677
	C43.419,231.57,34.602,219.095,31.265,204.832z M72.961,363.154c-0.525,3.864-4.076,7.011-7.941,7.05
	c-0.036-0.001-0.073-0.001-0.109-0.001H25.446c-4.471,0-8.109-3.638-8.109-8.109s3.637-8.109,8.109-8.109h24.802
	c4.342,0,8.014-3.213,8.592-7.517l15.691-117.097l14.428,14.428L72.961,363.154z M152.45,312.536l-0.102-0.077
	c-0.036-0.029-0.109-0.086-0.126-0.099l-0.485-0.378c-0.23-0.177-0.461-0.355-0.769-0.607c-10.697-8.592-28.236-27.412-42.528-45.39
	h2.703l54.247,54.247C160.823,318.244,156.486,315.672,152.45,312.536z M179.413,309.733l-93.058-93.057
	c-4.765-4.764-7.741-11.076-8.392-17.888c-1.349-12.397,1.126-41.433,4.29-50.812c0.076-0.187,0.149-0.378,0.214-0.572
	c0.409-1.229,1.071-2.306,1.964-3.2c1.556-1.555,3.622-2.41,5.822-2.41c2.198,0,4.266,0.856,5.822,2.412l124.431,124.431
	c5.489,5.489,8.511,12.786,8.511,20.548c0,7.762-3.024,15.06-8.515,20.55c-5.487,5.487-12.782,8.508-20.542,8.508
	C192.197,318.245,184.899,315.221,179.413,309.733z M277.381,353.984l2.303-11.499h5.611
	C281.682,345.476,278.91,349.448,277.381,353.984z M276.868,268.295l-7.182,35.847c-0.014,0.064-0.025,0.125-0.037,0.188
	l-11.892,59.355c-0.75,3.741-4.03,6.468-7.825,6.519c-0.052-0.001-0.104-0.001-0.155-0.001h-39.45c-4.471,0-8.109-3.638-8.109-8.109
	c0-4.471,3.637-8.109,8.109-8.109h25.728c4.131,0,7.687-2.915,8.5-6.965l19.468-97.155c0.878-4.38,5.163-7.238,9.551-6.356
	c0.009,0.001,0.017,0.003,0.025,0.005c0.722,0.149,1.422,0.396,2.077,0.73c1.148,0.587,2.721,1.737,3.686,3.878l5.965,13.207
	C281.293,261.343,277.691,264.186,276.868,268.295z M291.145,313.609l-3.931-8.705l5.467-27.29l13.243,29.318
	c1.84,4.075,0.023,8.888-4.048,10.727c-1.066,0.481-2.187,0.725-3.332,0.725C295.36,318.382,292.455,316.508,291.145,313.609z
	 M368.035,268.295l-7.182,35.847c-0.014,0.064-0.025,0.125-0.037,0.188l-11.892,59.355c-0.75,3.741-4.03,6.468-7.825,6.519
	c-0.053-0.001-0.105-0.001-0.156-0.001h-39.448c-4.472,0-8.111-3.638-8.111-8.109c0-4.471,3.638-8.109,8.111-8.109h25.728
	c4.131,0,7.687-2.915,8.5-6.965l19.466-97.153c0.88-4.38,5.152-7.239,9.551-6.358c0.009,0.001,0.018,0.003,0.025,0.005
	c0.724,0.15,1.423,0.395,2.077,0.73c1.149,0.588,2.721,1.738,3.688,3.877l5.965,13.208
	C372.462,261.342,368.858,264.186,368.035,268.295z M397.289,313.135c-0.765,2.026-2.275,3.633-4.245,4.523
	c-1.066,0.481-2.187,0.725-3.332,0.725c-3.184,0-6.089-1.874-7.398-4.776l-3.932-8.704l5.467-27.292l13.244,29.322
	C397.985,308.907,398.054,311.109,397.289,313.135z M434.666,325.148h-24.337c5.139-7.15,6.44-16.77,2.564-25.353l-26.563-58.816
	c-0.054-0.12-0.122-0.236-0.179-0.356c8.404-10.182,13.643-22.401,15.254-35.472h18.632c-0.051,1.116-0.086,2.236-0.086,3.363
	c0,4.788,3.88,8.668,8.668,8.668c4.787,0,8.668-3.88,8.668-8.668c0-1.106,0.04-2.203,0.104-3.295
	c31.821,1.431,57.273,27.762,57.273,59.93C494.663,298.235,467.748,325.148,434.666,325.148z"/>
<g>
</g>
<g>
</g>
<g>
</g>
<g>
</g>
<g>
</g>
<g>
</g>
<g>
</g>
<g>
</g>
<g>
</g>
<g>
</g>
<g>
</g>
<g>
</g>
<g>
</g>
<g>
</g>
<g>
</g>
</svg>
